<svg width="21" height="21" viewBox="0 0 21 21" fill="none" xmlns="http://www.w3.org/2000/svg">
<path fill-rule="evenodd" clip-rule="evenodd" d="M17.5169 0H3.48312C1.55945 0 0 1.55945 0 3.48312V17.5169C0 19.4405 1.55945 21 3.48312 21H17.5169C19.4405 21 21 19.4406 21 17.5169V3.48312C21 1.55945 19.4406 0 17.5169 0ZM1.74156 3.48312C1.74156 2.52129 2.52129 1.74156 3.48312 1.74156H17.5169C18.4787 1.74156 19.2584 2.52129 19.2584 3.48312V17.5169C19.2584 18.4787 18.4787 19.2584 17.5169 19.2584H12.2496V12.2534H14.5511C14.7301 12.2534 14.875 12.1058 14.875 11.9237L14.8764 10.8299C14.8764 10.7424 14.8421 10.6586 14.7815 10.5967C14.7209 10.5348 14.6382 10.5 14.5523 10.5H12.25L12.2496 8.75C12.2496 7.875 12.2496 7.0005 13.125 7.0005L15.4263 7C15.6051 7 15.75 6.85231 15.75 6.6703V5.5797C15.75 5.39786 15.6053 5.25034 15.4266 5.25H13.125C10.5 5.25 10.4996 7 10.4996 8.75L10.5 10.5034H9.07387C8.89491 10.5034 8.75 10.6511 8.75 10.8332L8.74964 11.927C8.74964 12.1092 8.89472 12.2567 9.07351 12.2567H10.4996V19.2584H3.48312C2.52129 19.2584 1.74156 18.4787 1.74156 17.5169V3.48312Z" fill="#343434"/>
</svg>
