<svg width="21" height="21" viewBox="0 0 21 21" fill="none" xmlns="http://www.w3.org/2000/svg">
<rect x="1" y="1.13867" width="18.8615" height="18.8615" rx="3" stroke="#343434" stroke-width="2"/>
<path fill-rule="evenodd" clip-rule="evenodd" d="M10.1939 6.53384C12.5145 6.53384 14.3841 8.4299 14.3841 10.7832C14.3841 13.1364 12.5145 15.0191 10.1939 15.0191C7.8734 15.0191 6.01697 13.1364 6.01697 10.7832C6.01697 8.4299 7.8734 6.53384 10.1939 6.53384ZM10.1939 4.83948C6.9717 4.83948 4.34619 7.50204 4.34619 10.7832C4.34619 14.0509 6.9717 16.7134 10.1939 16.7134C13.4294 16.7134 16.0549 14.0509 16.0549 10.7832C16.0549 7.50204 13.4294 4.83948 10.1939 4.83948ZM15.9886 3.61578C15.2991 3.61578 14.7289 4.18057 14.7289 4.89327C14.7289 5.59253 15.2991 6.15732 15.9886 6.15732C16.6781 6.15732 17.2483 5.59253 17.2483 4.89327C17.2483 4.18057 16.6781 3.61578 15.9886 3.61578Z" fill="#343434"/>
</svg>
