<svg width="20" height="20" viewBox="0 0 20 20" fill="none" xmlns="http://www.w3.org/2000/svg">
<path d="M12.5 12.5C12.0398 12.5 11.6667 12.8731 11.6667 13.3333V18.3333H1.66668V1.66668H11.6667V6.66668C11.6667 7.12691 12.0398 7.5 12.5 7.5C12.9602 7.5 13.3333 7.12691 13.3333 6.66668V0.83332C13.3333 0.373086 12.9602 0 12.5 0H0.83332C0.373086 0 0 0.373086 0 0.83332V19.1666C0 19.6269 0.373086 20 0.83332 20H12.5C12.9602 20 13.3333 19.6269 13.3333 19.1667V13.3333C13.3333 12.8731 12.9602 12.5 12.5 12.5Z" fill="#E31E24"/>
<path d="M19.8112 10.5281C19.8191 10.5185 19.826 10.5083 19.8335 10.4983C19.8423 10.4865 19.8515 10.4749 19.8597 10.4626C19.8676 10.4508 19.8745 10.4384 19.8818 10.4262C19.8884 10.4151 19.8954 10.4042 19.9016 10.3928C19.9082 10.3803 19.9139 10.3675 19.9198 10.3548C19.9255 10.3429 19.9314 10.3311 19.9366 10.3188C19.9416 10.3065 19.9458 10.294 19.9502 10.2815C19.955 10.2683 19.96 10.2553 19.9641 10.2419C19.9678 10.2294 19.9706 10.2167 19.9738 10.204C19.9773 10.1903 19.9811 10.1768 19.9839 10.1628C19.9867 10.1482 19.9885 10.1334 19.9906 10.1187C19.9923 10.1065 19.9947 10.0946 19.9959 10.0822C20.0013 10.0276 20.0013 9.97244 19.9959 9.91775C19.9947 9.90545 19.9924 9.89349 19.9906 9.88131C19.9885 9.86658 19.9868 9.85178 19.9839 9.83717C19.9811 9.82318 19.9773 9.80967 19.9738 9.79596C19.9706 9.7833 19.9678 9.7706 19.9641 9.7581C19.96 9.74467 19.955 9.73166 19.9502 9.71853C19.9457 9.70603 19.9416 9.69346 19.9366 9.68115C19.9315 9.66889 19.9255 9.65713 19.9198 9.64517C19.9139 9.63248 19.9082 9.61967 19.9016 9.60724C19.8954 9.5958 19.8884 9.5849 19.8818 9.57377C19.8745 9.56158 19.8676 9.54924 19.8597 9.53736C19.8514 9.52506 19.8423 9.51349 19.8335 9.5017C19.826 9.49174 19.8191 9.48154 19.8112 9.47185C19.794 9.45096 19.7759 9.43084 19.7568 9.4117C19.7565 9.41138 19.7562 9.41107 19.756 9.4108L16.4226 6.07748C16.0972 5.75205 15.5696 5.75205 15.2441 6.07748C14.9187 6.40291 14.9187 6.93056 15.2441 7.25599L17.1549 9.16674H10.0001C9.53983 9.16674 9.16675 9.53982 9.16675 10.0001C9.16675 10.4603 9.53983 10.8334 10.0001 10.8334H17.1549L15.2441 12.7441C14.9187 13.0695 14.9187 13.5972 15.2441 13.9226C15.5696 14.2481 16.0972 14.2481 16.4226 13.9226L19.756 10.5893C19.7563 10.589 19.7565 10.5887 19.7568 10.5884C19.7759 10.5692 19.794 10.549 19.8112 10.5281Z" fill="#E31E24"/>
</svg>
