<svg width="42" height="56" viewBox="0 0 42 56" fill="none" xmlns="http://www.w3.org/2000/svg">
<path fill-rule="evenodd" clip-rule="evenodd" d="M0 49.4402L10.94 55.2905V40.6647L0 34.8145V49.4402Z" fill="#C82527"/>
<path fill-rule="evenodd" clip-rule="evenodd" d="M0 21.9447L41.1729 0.00610352V27.5756L0 49.5142V21.9447Z" fill="#E31E24"/>
<path d="M12.1229 34.8146V32.4745L8.05738 34.5952V23.0409L5.47021 24.3572V38.3248L12.1229 34.8146ZM20.1062 26.4779V20.847C20.1062 20.0426 19.9584 19.3845 19.8105 18.9457C19.5888 18.5069 19.367 18.2144 18.9974 18.0682C18.6278 17.9219 18.2582 17.9219 17.8147 17.995C17.2973 18.0682 16.8538 18.2875 16.2624 18.5801C15.745 18.8726 15.2275 19.1651 14.784 19.5307C14.3405 19.9695 13.9709 20.4083 13.6013 20.9202C13.2317 21.4321 13.01 22.0171 12.7882 22.6753C12.5664 23.2603 12.4925 23.9916 12.4925 24.8691V30.5C12.4925 31.3044 12.5664 31.9626 12.7882 32.4014C13.01 32.8401 13.2317 33.1327 13.6013 33.2789C13.9709 33.4252 14.3405 33.4252 14.784 33.352C15.2275 33.2789 15.745 33.0595 16.2624 32.767C16.8538 32.4745 17.2973 32.182 17.8147 31.8163C18.2582 31.3776 18.6278 30.9388 18.9974 30.4269C19.367 29.915 19.5888 29.33 19.8105 28.6718C19.9584 28.0868 20.1062 27.2824 20.1062 26.4779ZM17.519 27.7943C17.519 28.233 17.4451 28.5255 17.3712 28.8181C17.3712 29.1106 17.2973 29.4031 17.1494 29.5493C17.0755 29.7687 16.9277 29.915 16.7798 30.0612C16.632 30.2075 16.4842 30.3538 16.2624 30.4269C16.1146 30.5 15.9667 30.5731 15.8189 30.5731C15.6711 30.5731 15.5232 30.5731 15.4493 30.5C15.3015 30.4269 15.2275 30.2075 15.1536 29.9881C15.1536 29.7687 15.0797 29.4762 15.0797 29.0374V23.5528C15.0797 23.114 15.1536 22.7484 15.1536 22.4559C15.2275 22.1634 15.3015 21.944 15.4493 21.7246C15.5232 21.5783 15.6711 21.3589 15.8189 21.2858C15.9667 21.1396 16.1146 20.9933 16.2624 20.9202C16.4842 20.847 16.632 20.7739 16.7798 20.7739C16.9277 20.7008 17.0755 20.7739 17.1494 20.847C17.2973 20.9202 17.3712 21.0664 17.3712 21.2858C17.4451 21.5783 17.519 21.8708 17.519 22.3096V27.7943ZM28.1634 14.8505V12.4373L21.6585 15.8743V29.8419L24.2457 28.4524V22.7484L27.572 20.9933V18.6532L24.2457 20.4083V16.8981L28.1634 14.8505ZM36.2206 10.609V8.26892L28.7547 12.1447V14.558L31.1941 13.2417V24.796L33.7812 23.4797V11.8522L36.2206 10.609Z" fill="#FEFEFE"/>
</svg>
