<svg width="29" height="29" viewBox="0 0 29 29" fill="none" xmlns="http://www.w3.org/2000/svg">
<g id="sign-in 1">
<path id="Vector" d="M15.7441 15.1191L11.3691 19.4941C11.2878 19.5754 11.1913 19.6398 11.085 19.6838C10.9788 19.7278 10.865 19.7505 10.75 19.7505C10.635 19.7505 10.5212 19.7278 10.415 19.6838C10.3087 19.6398 10.2122 19.5754 10.1309 19.4941C10.0496 19.4128 9.98515 19.3163 9.94116 19.21C9.89716 19.1038 9.87451 18.99 9.87451 18.875C9.87451 18.76 9.89716 18.6462 9.94116 18.54C9.98515 18.4337 10.0496 18.3372 10.1309 18.2559L13.013 15.375H2.875C2.64294 15.375 2.42038 15.2828 2.25628 15.1187C2.09219 14.9546 2 14.7321 2 14.5C2 14.2679 2.09219 14.0454 2.25628 13.8813C2.42038 13.7172 2.64294 13.625 2.875 13.625H13.013L10.1309 10.7441C9.96675 10.5799 9.87451 10.3572 9.87451 10.125C9.87451 9.89281 9.96675 9.67012 10.1309 9.50594C10.2951 9.34175 10.5178 9.24951 10.75 9.24951C10.9822 9.24951 11.2049 9.34175 11.3691 9.50594L15.7441 13.8809C15.8254 13.9622 15.89 14.0587 15.934 14.1649C15.978 14.2712 16.0007 14.385 16.0007 14.5C16.0007 14.615 15.978 14.7288 15.934 14.8351C15.89 14.9413 15.8254 15.0378 15.7441 15.1191ZM22.125 4H15.125C14.8929 4 14.6704 4.09219 14.5063 4.25628C14.3422 4.42038 14.25 4.64294 14.25 4.875C14.25 5.10706 14.3422 5.32962 14.5063 5.49372C14.6704 5.65781 14.8929 5.75 15.125 5.75H21.25V23.25H15.125C14.8929 23.25 14.6704 23.3422 14.5063 23.5063C14.3422 23.6704 14.25 23.8929 14.25 24.125C14.25 24.3571 14.3422 24.5796 14.5063 24.7437C14.6704 24.9078 14.8929 25 15.125 25H22.125C22.3571 25 22.5796 24.9078 22.7437 24.7437C22.9078 24.5796 23 24.3571 23 24.125V4.875C23 4.64294 22.9078 4.42038 22.7437 4.25628C22.5796 4.09219 22.3571 4 22.125 4Z" fill="#4C4C4C"/>
</g>
</svg>
