<svg width="20" height="21" viewBox="0 0 20 21" fill="none" xmlns="http://www.w3.org/2000/svg">
<g id="icon-wrap">
<path id="Vector" d="M13.7994 18.1682L13.7994 18.1369C13.5658 18.1367 13.3401 18.0469 13.1647 17.8838L13.1646 17.8837L10.2001 15.1524L10.177 15.1312L10.1559 15.1543L8.25647 17.2246L8.2795 17.2458L8.25647 17.2247C8.1226 17.3706 7.95048 17.471 7.7623 17.5132C7.57413 17.5554 7.37824 17.5376 7.19971 17.4619C7.02115 17.3862 6.86792 17.2561 6.75988 17.088C6.65182 16.9198 6.59396 16.7214 6.59388 16.5182V12.0081V11.9826L6.56895 11.9775L2.71029 11.181L2.70397 11.2116L2.71028 11.181C2.53207 11.1442 2.36974 11.0476 2.24781 10.9053C2.12586 10.763 2.05096 10.5828 2.03463 10.3916C2.0183 10.2004 2.06144 10.009 2.15742 9.84597C2.25338 9.68299 2.39688 9.55743 2.56613 9.48783L17.0154 3.54505L17.0155 3.54504C17.0946 3.51244 17.1806 3.5032 17.2643 3.51825C17.348 3.5333 17.4264 3.57211 17.4909 3.6307L17.4909 3.63071C17.5555 3.68922 17.6038 3.76528 17.6304 3.8508C17.6571 3.93632 17.661 4.02792 17.6418 4.11566L14.7457 17.3477L14.7456 17.3479C14.7088 17.5199 14.6297 17.6786 14.5164 17.8082C14.4032 17.9379 14.2597 18.0338 14.1004 18.0868L14.1002 18.0869C14.003 18.1198 13.9015 18.1367 13.7993 18.1369L13.7994 18.1682ZM13.7994 18.1682C13.905 18.168 14.0098 18.1505 14.1103 18.1165M13.7994 18.1682C13.5577 18.168 13.3245 18.075 13.1435 17.9067L10.2019 15.1966L10.2019 15.1966L10.1789 15.1754L10.1577 15.1984L10.1578 15.1985L14.1103 18.1165M14.1103 18.1165C14.275 18.0617 14.4231 17.9625 14.54 17.8288C14.6568 17.6951 14.7383 17.5315 14.7762 17.3544L14.1103 18.1165ZM7.62901 11.6707L7.65894 11.6482L16.5969 4.91637L16.6643 4.86564L16.6462 4.94802L13.9733 17.1577C13.9733 17.1578 13.9733 17.1579 13.9733 17.1579L13.9732 17.158L13.9427 17.1514C13.9375 17.1767 13.9258 17.2001 13.909 17.2191C13.8922 17.238 13.8708 17.2519 13.8472 17.2593L7.62901 11.6707ZM7.62901 11.6707L7.65656 11.6961L13.6831 17.252C13.6832 17.252 13.6832 17.2521 13.6833 17.2521C13.7064 17.2739 13.7348 17.2889 13.7655 17.2954C13.7961 17.3018 13.8278 17.2996 13.8572 17.2889L7.62901 11.6707ZM2.82922 10.337L2.83462 10.3523L2.85025 10.3567L2.86095 10.3597L2.86093 10.3598L2.86309 10.3602L6.88502 11.1875L6.89884 11.1903L6.91011 11.1818L14.2752 5.63693L14.2445 5.58307L2.85818 10.2675C2.85117 10.27 2.84466 10.2738 2.83891 10.2785L2.83213 10.284L2.82922 10.2923C2.82411 10.3067 2.82411 10.3226 2.82922 10.337ZM7.68651 16.642L7.68652 16.642L9.5581 14.5993L9.57917 14.5763L9.55622 14.5552L7.43938 12.607L7.38696 12.5588V12.63L7.38696 16.5182L7.38696 16.5185C7.38727 16.5541 7.39765 16.5889 7.41696 16.6186C7.43628 16.6482 7.46372 16.6714 7.49598 16.6849C7.52826 16.6984 7.56372 16.7015 7.59778 16.6938C7.63182 16.6861 7.66267 16.668 7.68651 16.642Z" fill="#545353" stroke="#545353" stroke-width="0.0625"/>
</g>
</svg>
