<svg width="26" height="23" viewBox="0 0 26 23" fill="none" xmlns="http://www.w3.org/2000/svg">
<g id="Button-add">
<path id="Vector" d="M11.1248 21C11.1248 21.3461 11.0221 21.6845 10.8298 21.9722C10.6375 22.26 10.3642 22.4843 10.0445 22.6168C9.72468 22.7492 9.37282 22.7839 9.03335 22.7164C8.69388 22.6488 8.38206 22.4822 8.13732 22.2374C7.89258 21.9927 7.72591 21.6809 7.65838 21.3414C7.59086 21.0019 7.62551 20.6501 7.75797 20.3303C7.89042 20.0105 8.11472 19.7372 8.40251 19.5449C8.69029 19.3526 9.02864 19.25 9.37476 19.25C9.83889 19.25 10.284 19.4344 10.6122 19.7626C10.9404 20.0908 11.1248 20.5359 11.1248 21ZM20.7498 19.25C20.4036 19.25 20.0653 19.3526 19.7775 19.5449C19.4897 19.7372 19.2654 20.0105 19.133 20.3303C19.0005 20.6501 18.9659 21.0019 19.0334 21.3414C19.1009 21.6809 19.2676 21.9927 19.5123 22.2374C19.7571 22.4822 20.0689 22.6488 20.4083 22.7164C20.7478 22.7839 21.0997 22.7492 21.4195 22.6168C21.7392 22.4843 22.0125 22.26 22.2048 21.9722C22.3971 21.6845 22.4998 21.3461 22.4998 21C22.4998 20.5359 22.3154 20.0908 21.9872 19.7626C21.659 19.4344 21.2139 19.25 20.7498 19.25ZM25.968 5.48406L23.1637 15.5772C23.0095 16.1285 22.6797 16.6146 22.2243 16.9616C21.769 17.3086 21.2129 17.4976 20.6404 17.5H9.82976C9.25557 17.4997 8.69723 17.3117 8.23988 16.9645C7.78253 16.6174 7.45127 16.1302 7.29663 15.5772L3.45976 1.75H1.49976C1.26769 1.75 1.04513 1.65781 0.881037 1.49372C0.716943 1.32962 0.624756 1.10706 0.624756 0.875C0.624756 0.642936 0.716943 0.420376 0.881037 0.256282C1.04513 0.0921872 1.26769 1.61617e-08 1.49976 1.61617e-08H4.12476C4.31605 -3.67389e-05 4.50209 0.0626189 4.65439 0.178375C4.8067 0.294132 4.91686 0.45661 4.96804 0.640938L6.00491 4.375H25.1248C25.2597 4.37497 25.3927 4.40614 25.5136 4.46605C25.6344 4.52597 25.7398 4.61302 25.8214 4.7204C25.9031 4.82777 25.9588 4.95258 25.9842 5.08505C26.0097 5.21753 26.0041 5.35408 25.968 5.48406ZM23.973 6.125H6.49163L8.98647 15.1091C9.03765 15.2934 9.14782 15.4559 9.30012 15.5716C9.45242 15.6874 9.63846 15.75 9.82976 15.75H20.6404C20.8317 15.75 21.0177 15.6874 21.17 15.5716C21.3223 15.4559 21.4325 15.2934 21.4837 15.1091L23.973 6.125Z" fill="#2C2C2C"/>
</g>
</svg>
