<svg width="20" height="21" viewBox="0 0 20 21" fill="none" xmlns="http://www.w3.org/2000/svg">
<g id="icon-wrap">
<path id="Vector" d="M13.5 6.47998H14.5M7 3.47998H13C14.0609 3.47998 15.0783 3.90141 15.8284 4.65155C16.5786 5.4017 17 6.41911 17 7.47998V13.48C17 14.5408 16.5786 15.5583 15.8284 16.3084C15.0783 17.0586 14.0609 17.48 13 17.48H7C5.93913 17.48 4.92172 17.0586 4.17157 16.3084C3.42143 15.5583 3 14.5408 3 13.48V7.47998C3 6.41911 3.42143 5.4017 4.17157 4.65155C4.92172 3.90141 5.93913 3.47998 7 3.47998ZM10 13.48C9.20435 13.48 8.44129 13.1639 7.87868 12.6013C7.31607 12.0387 7 11.2756 7 10.48C7 9.68433 7.31607 8.92127 7.87868 8.35866C8.44129 7.79605 9.20435 7.47998 10 7.47998C10.7956 7.47998 11.5587 7.79605 12.1213 8.35866C12.6839 8.92127 13 9.68433 13 10.48C13 11.2756 12.6839 12.0387 12.1213 12.6013C11.5587 13.1639 10.7956 13.48 10 13.48Z" stroke="#545353"/>
</g>
</svg>
