<svg width="134" height="28" viewBox="0 0 134 28" fill="none" xmlns="http://www.w3.org/2000/svg">
<path id="logo" d="M0 0.400002H8.52V20.28H27.48V27.08H0V0.400002ZM48.8428 0C60.0028 0 62.4828 0.280002 64.5228 1.84C66.5628 3.4 67.1628 6.08 67.1628 13.72C67.1628 21.4 66.5628 24.08 64.5228 25.64C62.4828 27.2 59.9628 27.48 48.9228 27.48C37.6828 27.48 35.2028 27.2 33.1628 25.64C31.0828 24.04 30.5228 21.4 30.5228 13.56C30.5228 6.12 31.1228 3.4 33.1628 1.84C35.2028 0.280002 37.6828 0 48.8428 0ZM48.8428 6.92C40.8428 6.92 40.0828 7.04 39.2828 8.6C38.8028 9.52 38.6428 11.04 38.6428 14.44C38.6428 17.76 38.8828 18.84 39.8428 19.6C40.9228 20.44 42.2028 20.56 48.9228 20.56C55.4428 20.56 56.7628 20.4 57.8428 19.6C58.7628 18.88 59.0428 17.72 59.0428 14.48C59.0428 10.52 58.8028 9 58.0828 8.12C57.1628 7.04 56.2828 6.92 48.8428 6.92ZM71.5797 0.400002H99.78V6.68H79.6997V11.72H98.7797V17.84H79.6997V27.08H71.5797V0.400002ZM100.939 0.400002H133.219V7.2H121.339V27.08H112.819V7.2H100.939V0.400002Z" fill="#FF0C23"/>
</svg>
