<svg width="23" height="21" viewBox="0 0 23 21" fill="none" xmlns="http://www.w3.org/2000/svg">
<path id="Vector" d="M22.1253 19.7222C20.516 16.9604 18.0359 14.9801 15.1417 14.0413C16.5733 13.1954 17.6856 11.9063 18.3077 10.3721C18.9299 8.83786 19.0274 7.14335 18.5855 5.54877C18.1435 3.95418 17.1865 2.54769 15.8613 1.54529C14.5361 0.542886 12.9161 0 11.25 0C9.58391 0 7.96389 0.542886 6.63871 1.54529C5.31353 2.54769 4.35647 3.95418 3.91452 5.54877C3.47256 7.14335 3.57013 8.83786 4.19226 10.3721C4.81438 11.9063 5.92666 13.1954 7.35827 14.0413C4.46405 14.9791 1.98404 16.9594 0.374726 19.7222C0.315709 19.8177 0.276564 19.924 0.2596 20.0348C0.242636 20.1456 0.248196 20.2586 0.275953 20.3672C0.303709 20.4758 0.3531 20.5778 0.421211 20.6672C0.489322 20.7565 0.574773 20.8314 0.672522 20.8875C0.770272 20.9435 0.878341 20.9796 0.990351 20.9935C1.10236 21.0074 1.21605 20.9989 1.3247 20.9685C1.43335 20.9381 1.53476 20.8864 1.62296 20.8165C1.71116 20.7465 1.78435 20.6598 1.83822 20.5613C3.82899 17.1461 7.34771 15.107 11.25 15.107C15.1523 15.107 18.671 17.1461 20.6618 20.5613C20.7157 20.6598 20.7888 20.7465 20.877 20.8165C20.9652 20.8864 21.0667 20.9381 21.1753 20.9685C21.284 20.9989 21.3976 21.0074 21.5096 20.9935C21.6217 20.9796 21.7297 20.9435 21.8275 20.8875C21.9252 20.8314 22.0107 20.7565 22.0788 20.6672C22.1469 20.5778 22.1963 20.4758 22.224 20.3672C22.2518 20.2586 22.2574 20.1456 22.2404 20.0348C22.2234 19.924 22.1843 19.8177 22.1253 19.7222ZM5.33263 7.55494C5.33263 6.3932 5.67968 5.25756 6.32989 4.29161C6.9801 3.32566 7.90426 2.57279 8.98552 2.12821C10.0668 1.68364 11.2566 1.56732 12.4044 1.79396C13.5523 2.0206 14.6067 2.58003 15.4342 3.4015C16.2618 4.22298 16.8253 5.26959 17.0537 6.40901C17.282 7.54842 17.1648 8.72946 16.7169 9.80276C16.2691 10.8761 15.5106 11.7934 14.5375 12.4389C13.5644 13.0843 12.4203 13.4288 11.25 13.4288C9.68113 13.4271 8.177 12.8077 7.06764 11.7065C5.95829 10.6053 5.33431 9.11227 5.33263 7.55494Z" fill="#4C4C4C"/>
</svg>
