<svg width="25" height="24" viewBox="0 0 25 24" fill="none" xmlns="http://www.w3.org/2000/svg">
<g id="u:search">
<path id="Vector" d="M21.9614 20.2899L18.2514 16.6099C19.6915 14.8143 20.3889 12.5352 20.2002 10.2412C20.0115 7.94721 18.951 5.81269 17.2369 4.27655C15.5227 2.74041 13.2852 1.91941 10.9843 1.98237C8.68341 2.04534 6.49409 2.98747 4.86651 4.61505C3.23893 6.24263 2.2968 8.43194 2.23384 10.7328C2.17088 13.0337 2.99188 15.2713 4.52801 16.9854C6.06415 18.6996 8.19867 19.76 10.4927 19.9487C12.7867 20.1374 15.0658 19.44 16.8614 17.9999L20.5414 21.6799C20.6343 21.7736 20.7449 21.848 20.8668 21.8988C20.9887 21.9496 21.1194 21.9757 21.2514 21.9757C21.3834 21.9757 21.5141 21.9496 21.6359 21.8988C21.7578 21.848 21.8684 21.7736 21.9614 21.6799C22.1416 21.4934 22.2424 21.2442 22.2424 20.9849C22.2424 20.7256 22.1416 20.4764 21.9614 20.2899ZM11.2514 17.9999C9.8669 17.9999 8.51352 17.5894 7.36238 16.8202C6.21123 16.051 5.31403 14.9578 4.78421 13.6787C4.2544 12.3996 4.11578 10.9921 4.38587 9.63427C4.65597 8.27641 5.32265 7.02912 6.30162 6.05016C7.28059 5.07119 8.52787 4.4045 9.88574 4.13441C11.2436 3.86431 12.6511 4.00293 13.9302 4.53275C15.2092 5.06256 16.3025 5.95977 17.0717 7.11091C17.8408 8.26206 18.2514 9.61544 18.2514 10.9999C18.2514 12.8564 17.5139 14.6369 16.2011 15.9497C14.8884 17.2624 13.1079 17.9999 11.2514 17.9999Z" fill="#545353"/>
</g>
</svg>
